<svg width="32" height="32" viewBox="0 0 32 32" fill="none" xmlns="http://www.w3.org/2000/svg">
  <rect width="32" height="32" rx="7" fill="#4f46e5"/>
  <path d="M11 7.5h6.5L22 12v12.5a1 1 0 0 1-1 1H11a1 1 0 0 1-1-1v-16a1 1 0 0 1 1-1Z" fill="#ffffff"/>
  <path d="M17.5 7.5V11a1 1 0 0 0 1 1H22" stroke="#4f46e5" stroke-width="1.4" stroke-linejoin="round"/>
  <circle cx="13.2" cy="17" r="1.5" fill="#4f46e5"/>
  <circle cx="19" cy="14.6" r="1.2" fill="#818cf8"/>
  <circle cx="19" cy="19.4" r="1.2" fill="#818cf8"/>
  <path d="M14.6 16.3 17.9 14.8M14.6 17.7l3.3 1.5" stroke="#4f46e5" stroke-width="1.1" stroke-linecap="round"/>
</svg>
